<svg width="58" height="57" viewBox="0 0 58 57" fill="none" xmlns="http://www.w3.org/2000/svg">
<path d="M11.599 0.000139209H46.4002C49.4759 0.000139209 52.427 1.22362 54.6014 3.39869C56.776 5.57377 58 8.52486 58 11.5999V34.3307C58 37.4063 56.7765 40.3574 54.6014 42.5319C52.4264 44.7065 49.4753 45.9305 46.4002 45.9305H46.1255V55.1806C46.1227 55.5969 45.8791 55.9707 45.5025 56.1378C45.3665 56.203 45.2221 56.2341 45.0748 56.2341C44.8057 56.237 44.548 56.1407 44.3498 55.9651L33.1264 45.9368H11.5998C8.52412 45.9368 5.57303 44.7161 3.39856 42.5411C1.22409 40.366 3.8147e-06 37.4149 3.8147e-06 34.3368V11.6145C-0.00282669 8.53602 1.21781 5.58209 3.39288 3.40423C5.56796 1.22632 8.52189 0 11.6002 0L11.599 0.000139209Z" fill="#9AA5B1"/>
<path d="M43.9711 17.5022C42.4616 13.3928 39.3264 10.0822 35.3022 8.35179C31.2806 6.62134 26.7209 6.62134 22.6989 8.35179C18.6744 10.0822 15.5392 13.393 14.03 17.5022C14.0017 17.5617 13.9818 17.6212 13.9648 17.6835C12.7357 21.1018 12.7357 24.8431 13.9648 28.2616C13.979 28.3239 14.0017 28.3862 14.03 28.4428C15.5395 32.5551 18.6747 35.8629 22.6989 37.5933C26.7204 39.3237 31.2801 39.3237 35.3022 37.5933C39.3266 35.8628 42.4618 32.5549 43.9711 28.4428C43.9994 28.3862 44.0221 28.3239 44.0362 28.2616C45.2654 24.8432 45.2654 21.102 44.0362 17.6835C44.0192 17.6212 43.9994 17.5617 43.9711 17.5022ZM41.4476 16.9216H37.2221C36.7293 14.503 35.7437 12.2118 34.322 10.1952C37.4345 11.498 39.9692 13.8883 41.4502 16.9216H41.4476ZM35.7636 22.9683C35.7636 24.291 35.6644 25.6135 35.469 26.922H22.5316C22.1379 24.3052 22.1379 21.6429 22.5316 19.0259H35.469C35.6644 20.3315 35.7636 21.6484 35.7636 22.9682V22.9683ZM29.0003 9.11371C31.6171 9.11371 33.931 12.348 35.0555 16.9222H22.9451C24.0695 12.3483 26.3833 9.11371 29.0003 9.11371ZM23.6504 10.1927V10.1956C22.2258 12.212 21.2374 14.5032 20.7503 16.922H16.5502C18.0258 13.8945 20.5464 11.5041 23.6506 10.1956L23.6504 10.1927ZM15.1458 22.9683C15.1458 21.6343 15.3413 20.3033 15.7264 19.0259H20.4108H20.4079C20.0426 21.6456 20.0426 24.3022 20.4079 26.9221H15.7264C15.3384 25.6391 15.143 24.308 15.1459 22.9684L15.1458 22.9683ZM16.5534 29.015H20.779C21.2661 31.4393 22.2545 33.7333 23.6791 35.7529C20.5638 34.4473 18.0318 32.0513 16.5509 29.015H16.5534ZM29.0009 36.8175C26.384 36.8175 24.0702 33.5832 22.9457 29.0011H35.053C33.9315 33.5976 31.6177 36.8175 29.0009 36.8175ZM34.3593 35.7384C35.781 33.7163 36.7695 31.4222 37.2594 29.0005H41.485C40.0094 32.0423 37.4747 34.4411 34.3592 35.7523L34.3593 35.7384ZM42.2754 26.9221H37.5939C37.9592 24.3024 37.9592 21.6459 37.5939 19.026H42.2782H42.2754C43.0486 21.6004 43.0485 24.3447 42.2754 26.9221Z" fill="#454F59"/>
</svg>
